<svg width="417" height="589" viewBox="0 0 417 589" fill="none" xmlns="http://www.w3.org/2000/svg">
<path d="M101.686 1.00537C100.837 1.85353 100.638 2.45223 100.887 3.64963C101.536 7.19193 102.234 13.0791 102.035 13.2787C101.935 13.4284 100.438 11.1833 98.792 8.28955C95.3994 2.55201 94.3517 1.50429 91.7075 1.50429C86.02 1.50429 66.1636 7.94031 65.5151 9.98586C65.3654 10.4848 65.565 12.231 65.9641 13.8275L66.7124 16.7212L64.6669 14.2765C62.6713 11.9316 62.5216 11.8817 60.3265 12.0813C58.7799 12.2809 56.2355 13.3286 52.2941 15.4739C44.4114 19.7646 32.4876 27.6974 32.0885 28.8948C31.9388 29.4436 32.1384 30.3915 32.5375 31.09C33.236 32.1377 45.509 44.1117 61.3243 59.2289C64.2678 62.0228 67.2113 64.4675 67.9597 64.6671C69.656 65.0662 70.9531 64.2181 73.4975 60.9751C74.5951 59.5781 75.6428 58.4306 75.8424 58.3807C76.2914 58.3807 76.6406 61.1747 77.0397 67.8602C77.1894 70.7539 77.5885 73.5478 77.838 74.0966C78.1373 74.6454 80.0831 76.7409 82.1785 78.7365C86.5189 82.9274 86.4191 82.9274 78.8358 77.9383C71.8511 73.3981 70.8533 72.999 68.1094 73.8471C59.5282 76.3417 38.8237 89.3136 38.8237 92.2073C38.8237 92.6064 41.0189 95.2008 43.713 97.9448C46.3572 100.689 48.2031 102.834 47.804 102.635C47.4049 102.485 44.7108 101.387 41.8171 100.14C35.2815 97.2962 34.1839 97.0468 32.3879 97.7951C30.1428 98.6932 21.8111 108.871 16.9218 116.654C14.8264 119.947 15.026 120.895 18.6181 123.689C20.1647 124.886 21.3122 125.934 21.2124 126.034C21.1126 126.134 20.0649 125.884 18.8676 125.485C16.0737 124.487 13.1801 124.537 12.1324 125.535C9.58794 128.079 -0.340244 152.277 0.00898892 155.121C0.10877 155.919 0.657564 156.617 1.40592 157.016C2.65318 157.565 19.5161 160.01 38.674 162.405C48.8517 163.652 50.8972 163.602 51.895 162.006C52.0447 161.706 52.3939 159.611 52.5436 157.316C52.7431 155.021 53.0425 153.175 53.242 153.225C53.3917 153.225 55.5869 155.669 58.0315 158.663C60.526 161.607 62.9208 164.301 63.4197 164.6C63.8687 164.899 65.3654 165.299 66.6625 165.448C71.452 165.997 71.3522 165.847 68.6083 168.741C64.7168 172.882 57.5326 184.108 53.4915 192.29C49.9493 199.524 49.3506 201.57 50.2486 202.967C50.4482 203.316 53.8906 205.062 57.8319 206.808C61.7733 208.604 64.9164 210.051 64.7667 210.101C64.617 210.101 60.7755 210.301 56.1357 210.5C45.6088 210.949 45.8583 210.8 43.8127 219.181C42.0666 226.366 40.52 235.346 40.0211 241.034C39.7217 245.225 39.7217 245.375 40.8692 246.123C41.5178 246.572 43.8127 247.42 45.958 248.019C48.0534 248.618 49.7497 249.216 49.6499 249.266C49.5501 249.366 47.6044 249.765 45.3095 250.164C39.622 251.162 39.1729 251.661 38.9235 257.398C38.674 262.338 39.622 281.396 40.3703 287.583C40.969 292.422 41.7672 293.57 44.3117 293.221C47.1554 292.871 89.8117 277.555 92.0568 276.108C93.9027 274.96 93.9027 273.464 91.957 267.975C90.9093 265.182 90.2108 262.737 90.3605 262.637C90.5102 262.487 93.5535 263.984 97.1955 265.93C100.788 267.926 104.43 269.722 105.278 269.921C107.124 270.47 108.67 269.971 120.045 265.132C139.053 256.999 153.621 249.615 154.52 247.67C155.168 246.223 155.018 245.873 150.778 238.889C149.281 236.394 148.134 234.249 148.283 234.099C148.433 233.999 153.522 234.698 159.608 235.696C166.194 236.793 171.233 237.392 172.131 237.242C175.324 236.494 190.59 223.821 196.477 216.886C199.072 213.843 199.82 213.294 200.169 213.893C200.419 214.342 200.518 220.179 200.369 226.865C200.169 235.396 200.269 239.138 200.668 239.388C200.967 239.587 202.913 239.737 204.959 239.737H208.7L209.549 244.975C212.891 265.182 214.139 281.746 213.739 299.856C213.59 307.689 213.241 315.622 212.991 317.568C212.592 320.362 212.692 321.31 213.241 322.158C213.889 323.206 214.338 323.305 218.878 323.305H223.817L224.117 325.151C225.015 331.438 225.514 346.655 225.264 361.472C224.965 378.735 224.466 384.672 222.121 398.043C220.475 407.423 220.425 407.323 226.611 407.872L230.752 408.221L231.101 411.214C231.85 418.748 231.151 441.199 229.654 456.217C228.307 469.388 225.963 482.46 223.119 492.887C221.173 499.972 221.123 500.67 222.52 501.618C223.119 502.017 225.164 502.516 226.96 502.716C228.806 502.865 230.552 503.215 230.902 503.414C231.401 503.713 231.251 505.709 230.453 512.195C227.409 535.644 223.268 553.954 217.132 571.067C213.44 581.395 213.64 580.646 214.787 581.794C215.935 582.991 217.182 583.291 226.91 584.987C243.324 587.781 262.183 588.779 285.731 588.13C300.798 587.731 326.941 585.935 328.837 585.186C329.585 584.837 330.333 584.089 330.483 583.49C330.782 582.193 328.437 561.039 323.897 524.917C322.151 510.848 320.704 498.874 320.704 498.375C320.704 497.726 321.303 497.327 322.85 496.878C325.544 496.18 326.192 495.631 326.192 493.985C326.192 491.64 311.225 417.551 307.483 401.535C307.084 399.639 306.985 398.542 307.334 398.342C307.583 398.193 309.18 397.744 310.876 397.344C314.967 396.397 316.563 395.698 316.913 394.8C317.112 394.351 316.314 390.509 315.167 386.219C311.475 372.049 303.742 343.761 298.703 325.9C295.959 316.221 293.813 308.138 294.013 307.889C294.163 307.639 295.56 307.041 297.156 306.542C301.846 305.145 302.744 304.496 302.744 302.85C302.744 302.051 302.095 299.557 301.247 297.262C300.449 294.967 297.206 285.637 294.013 276.507C288.575 260.841 278.347 232.103 275.554 224.769C274.855 222.923 274.406 221.227 274.556 221.027C274.656 220.828 276.152 220.179 277.749 219.531C279.395 218.932 281.042 218.134 281.341 217.735C281.79 217.186 281.042 214.641 277.799 206.06C275.504 200.023 273.807 194.934 273.957 194.735C274.157 194.585 276.252 194.136 278.647 193.787C281.042 193.387 283.536 192.988 284.185 192.839C285.781 192.44 285.582 193.188 282.887 197.229C279.645 202.019 279.245 202.817 279.645 203.865C280.044 204.962 286.679 208.006 297.755 212.296C307.533 216.038 325.045 222.025 326.242 222.025C326.641 222.025 329.984 220.578 333.676 218.782C337.368 216.986 340.611 215.539 340.96 215.539C341.359 215.539 341.06 216.787 340.112 219.331C338.366 223.871 338.316 225.268 339.812 226.216C340.411 226.615 346.997 228.711 354.38 230.906C387.208 240.635 387.857 240.735 389.054 238.539C390.501 235.795 391 208.704 389.653 206.26C388.954 204.962 386.659 204.064 384.115 204.064C380.972 204.064 380.723 203.266 383.616 202.568C387.109 201.769 388.954 200.821 389.154 199.724C389.653 197.429 386.31 182.012 384.015 175.925C382.519 171.934 381.82 171.635 372.74 171.635C368.699 171.635 365.606 171.435 365.905 171.236C366.155 170.986 368.25 170.038 370.595 169.14C376.382 166.895 378.378 165.847 378.777 164.899C379.625 162.654 370.295 148.385 362.413 139.854C357.873 134.964 357.573 134.915 347.845 136.461C343.454 137.16 339.413 137.858 338.815 137.958C338.166 138.108 337.667 138.008 337.667 137.708C337.667 137.409 339.064 135.014 340.71 132.32C345.001 125.585 345.001 125.485 343.055 123.539C340.71 121.244 331.531 115.856 322.151 111.266C315.665 108.123 314.269 107.275 315.266 107.075C315.915 106.925 318.459 106.426 320.904 106.027C323.398 105.578 325.793 104.98 326.292 104.73C327.589 104.032 327.39 102.435 325.594 98.3439C324.746 96.3982 324.147 94.7018 324.297 94.5522C324.446 94.4025 328.687 95.6498 333.776 97.2962C339.463 99.1422 343.903 100.29 345.25 100.29C349.79 100.29 367.252 93.7539 376.183 88.7149C383.816 84.4242 383.866 84.1747 376.582 79.2853C373.588 77.2398 371.393 75.5435 371.742 75.4437C372.141 75.3938 375.883 75.8927 380.124 76.5912C389.104 78.038 390.102 78.0879 392.048 77.0901C395.141 75.4936 403.123 65.1161 406.715 57.9816C409.11 53.2419 408.861 52.743 403.522 51.5955C401.327 51.0966 399.631 50.6475 399.731 50.5478C399.831 50.3981 401.926 50.1486 404.42 49.8992C406.865 49.6996 409.36 49.2007 409.958 48.8514C411.704 47.7538 414.249 39.1226 415.995 28.4458C417.192 21.0119 417.292 17.8188 416.294 17.0206C415.895 16.6713 413.002 16.1724 409.908 15.923C402.724 15.3243 358.721 14.7256 355.029 15.1746C351.537 15.6236 350.539 16.5716 349.142 20.6627C348.543 22.5087 347.895 23.9555 347.645 23.9555C347.446 23.9555 346.298 22.5087 345.151 20.7126C343.953 18.9165 342.606 17.2201 342.107 16.9707C339.812 15.7234 324.795 17.3199 308.98 20.513C299.75 22.4089 286.18 26.3004 283.935 27.7473C282.389 28.7451 282.488 29.4935 284.733 35.0814C286.23 38.7234 286.529 39.9208 285.981 39.9208C285.582 39.9208 281.74 38.7733 277.4 37.3764C271.912 35.6302 269.018 34.9317 267.821 35.0814C263.38 35.6801 243.275 49.9989 240.83 54.2896C239.882 55.9859 240.58 56.7343 245.819 59.8276C248.313 61.2745 250.309 62.5716 250.209 62.6714C250.11 62.7712 247.266 62.3721 243.873 61.8233C240.431 61.2745 236.938 60.9252 236.04 61.1248C234.394 61.4241 232.698 63.1703 229.405 68.0597L227.759 70.5044L225.514 68.0597C214.687 56.2853 211.345 52.9426 209.898 52.6432C208.7 52.3937 207.503 52.743 204.16 54.3395C201.466 55.6367 199.97 56.0857 199.97 55.6866C199.97 55.3374 200.518 53.3916 201.217 51.3959C203.063 46.0076 202.913 44.6605 200.319 42.166C197.375 39.372 187.647 31.2896 182.708 27.5477C173.278 20.4631 157.164 10.9837 154.52 10.9837C152.624 10.9837 152.075 11.6323 149.131 17.0206C147.585 19.8145 146.138 22.1095 145.839 22.1095C145.589 22.0596 143.993 18.4674 142.346 14.0271C140.7 9.63662 138.904 5.54551 138.355 4.9967C136.11 2.80147 123.737 0.506454 111.863 0.157213C102.983 -0.142137 102.783 -0.0922455 101.686 1.00537ZM90.0611 167.444C91.957 167.693 93.1543 168.342 92.6055 168.891C92.3561 169.14 81.2305 167.294 80.8813 166.995C80.6817 166.745 86.9679 167.045 90.0611 167.444ZM199.022 197.578C199.171 199.075 199.271 200.422 199.171 200.522C198.922 200.821 188.994 195.383 188.994 194.934C188.994 194.735 191.189 194.635 193.883 194.685L198.722 194.834L199.022 197.578Z" fill="#59A985"/>
</svg>
