<svg width="515" height="505" viewBox="0 0 515 505" fill="none" xmlns="http://www.w3.org/2000/svg">
<path d="M156.375 13.0002C154.738 20.189 153.36 26.2586 153.23 26.4738C153.144 26.7321 154.781 28.9706 156.849 31.4673C158.96 33.964 160.899 36.3316 161.243 36.762C161.631 37.1925 160.166 36.676 157.581 35.4706C155.255 34.3945 152.283 33.017 151.033 32.4574L148.75 31.4242L149.008 33.8779C149.612 39.9045 151.809 66.2492 151.809 67.6697C151.809 69.2194 152.024 69.4346 160.425 76.236C165.164 80.0672 169.041 83.2527 169.041 83.3388C169.041 83.4679 167.016 82.607 157.452 78.1731C154.049 76.6235 151.206 75.3751 151.119 75.4181C151.076 75.5042 153.403 81.3156 156.332 88.3753C159.218 95.3919 161.459 101.16 161.243 101.16C161.028 101.16 152.541 98.5774 142.417 95.3919C132.293 92.2064 118.421 87.8587 111.528 85.7494L99.035 81.8321L92.7883 82.2196C89.3419 82.4348 76.6762 83.2096 64.5706 83.9414C52.508 84.6302 40.5747 85.362 38.076 85.5342L33.5526 85.7924L17.182 98.0608C8.17814 104.776 0.509804 110.587 0.165159 110.932C-0.394887 111.491 0.251321 111.534 5.55023 111.319C8.86743 111.147 20.1976 110.846 30.7523 110.63C41.3071 110.415 52.6373 110.114 55.9545 109.942C59.9179 109.77 61.8565 109.813 61.5549 110.114C61.3395 110.329 55.0498 113.687 47.6399 117.518C40.2301 121.392 34.2419 124.578 34.328 124.664C34.3711 124.75 38.8946 126.515 44.3227 128.624C49.7939 130.776 59.6594 134.651 66.2938 137.233C72.9282 139.859 82.5351 143.604 87.6617 145.628L96.9671 149.287L105.712 147.177C110.537 146.015 114.501 145.111 114.587 145.197C114.673 145.283 111.442 146.962 107.393 148.942C102.611 151.267 100.198 152.601 100.586 152.816C100.931 152.989 108.47 156.217 117.344 159.919C126.219 163.664 133.629 166.85 133.844 166.979C134.016 167.151 126.563 169.949 117.258 173.178C88.2649 183.208 86.5847 183.853 85.68 184.456C84.9046 184.972 37.516 224.274 36.6544 225.092C36.2236 225.523 24.2472 264.824 24.4626 265.083C24.5487 265.169 35.362 256.904 48.4584 246.702C61.598 236.543 72.3681 228.278 72.4543 228.364C72.5405 228.45 69.6971 234.476 66.1215 241.751C62.5458 249.026 59.7025 255.053 59.8317 255.182C59.9179 255.311 63.752 254.364 68.3186 253.116C108.728 242.182 122.428 238.437 123.203 238.092C123.677 237.877 126.607 234.692 129.665 231.033C132.724 227.374 135.266 224.403 135.309 224.446C135.352 224.489 133.758 227.675 131.733 231.549C129.665 235.38 128.071 238.609 128.201 238.695C128.287 238.781 131.345 238.135 135.007 237.188C153.79 232.539 182.396 225.566 182.697 225.566C182.913 225.566 183.43 227.244 183.817 229.311C186.402 241.837 191.486 247.089 205.228 251.437C207.727 252.212 209.795 252.9 209.838 252.9C209.924 252.943 209.063 255.785 207.943 259.271C206.004 265.341 205.875 265.599 204.841 265.513L203.721 265.384L194.803 300.252C189.892 319.408 185.885 335.421 185.885 335.809C185.842 336.325 186.359 336.584 187.609 336.799C188.599 336.971 189.289 337.186 189.159 337.358C189.03 337.488 187.522 337.272 185.842 336.842C184.162 336.411 182.74 336.153 182.654 336.239C182.568 336.325 181.707 339.123 180.673 342.438C179.682 345.753 174.9 361.206 170.075 376.746C165.25 392.329 161.286 405.243 161.286 405.459C161.286 405.674 163.096 406.19 165.336 406.578C168.825 407.224 169.342 407.396 169.17 408.084C168.998 408.816 168.696 408.773 164.474 407.654C162.019 406.965 159.908 406.578 159.822 406.707C159.348 407.525 136.73 489.96 136.73 490.907C136.73 491.337 137.851 491.725 140.522 492.198C169.816 497.493 202.084 503.304 205.702 503.907L210.226 504.682L237.797 501.539C252.919 499.817 266.187 498.311 267.178 498.182L269.074 497.923L268.815 493.576C268.686 491.165 268.341 472.44 268.04 451.863L267.523 414.541H266.231C265.498 414.541 262.956 414.843 260.587 415.187C254.297 416.091 254.34 416.091 254.34 414.326C254.34 412.561 254.039 412.69 261.578 411.83C264.507 411.485 267.006 411.055 267.178 410.926C267.437 410.624 269.031 338.736 268.772 338.435C268.686 338.348 267.523 338.564 266.101 338.908C264.723 339.296 263.56 339.554 263.56 339.511C263.516 339.468 264.723 325.09 266.231 307.57C267.738 290.05 268.988 275.371 268.988 274.983C268.988 274.467 269.418 274.209 270.409 274.123L271.788 273.993L272.434 264.738L273.08 255.483L276.527 255.225C282.386 254.751 285.617 253.632 290.226 250.619L291.863 249.543L294.104 251.695C306.812 263.92 330.248 285.874 330.421 285.702C330.55 285.573 331.411 280.881 332.359 275.242C333.307 269.603 334.169 264.911 334.255 264.781C334.384 264.695 334.47 265.642 334.513 266.934C334.513 268.225 334.772 273.348 335.073 278.341L335.59 287.467L339.941 292.116C342.354 294.699 352.822 305.288 363.205 315.663L382.117 334.517L385.477 317.169C387.33 307.613 388.924 299.735 388.967 299.692C389.139 299.52 389.829 301.759 398.445 329.954C408.009 361.292 407.75 360.518 408.138 359.829C408.31 359.485 411.886 349.713 416.108 338.047L423.733 316.911L416.969 291.126C413.264 276.964 409.43 262.414 408.439 258.755L406.673 252.169L383.323 224.102C370.442 208.691 360.06 196.036 360.232 195.949C360.405 195.906 371.089 194.916 383.97 193.711C396.851 192.549 407.449 191.516 407.535 191.429C407.621 191.343 405.208 189.062 402.15 186.35C399.048 183.681 396.592 181.4 396.678 181.357C396.721 181.27 400.039 183.078 403.959 185.36L411.153 189.492L444.412 187.254C462.721 186.049 477.756 185.016 477.799 184.929C477.885 184.886 473.103 180.28 467.201 174.727C461.256 169.217 456.474 164.611 456.56 164.568C456.647 164.482 469.571 168.572 485.295 173.651C501.019 178.731 513.944 182.82 514.03 182.734C514.202 182.562 491.111 152.128 489.819 150.836C489.086 150.061 460.222 139.472 431.315 129.313L428.386 128.28H403.184H377.938L373.803 125.137L369.624 122.038L378.025 121.78C382.634 121.607 392.327 121.349 399.608 121.177L412.877 120.876L425.887 113.601C433.081 109.597 439.113 106.283 439.371 106.197C439.587 106.111 435.623 100.471 430.583 93.67C425.542 86.8686 421.536 81.1864 421.665 81.0573C421.924 80.799 427.395 81.5308 468.364 87.2991C483.098 89.4084 495.161 91.0442 495.161 90.9581C495.161 90.915 485.037 81.6169 472.672 70.2956L450.228 49.7192L446.738 49.4609C444.799 49.2887 436.356 49.0304 427.955 48.9013C419.554 48.7291 405.941 48.4278 397.712 48.2125L382.763 47.8251L337.917 67.5836L293.113 87.3421L289.236 90.872C287.082 92.8091 285.272 94.3157 285.143 94.2296C285.057 94.1005 281.869 87.1269 278.121 78.6897C274.33 70.2956 270.926 62.8485 270.625 62.2028L269.979 61.0405L264.55 66.0339C261.578 68.7889 259.036 71.0274 258.95 71.0274C258.821 71.0274 259.682 68.1863 260.802 64.6995L262.827 58.3716L250.118 39.2157C243.139 28.6692 237.28 19.8446 237.108 19.6724C236.979 19.5003 235.126 23.4606 233.015 28.454C230.904 33.4905 229.095 37.3217 228.966 36.9773C228.88 36.6329 227.803 31.8117 226.596 26.2586L224.399 16.1426L217.722 12.6988C214.06 10.8048 207.598 7.44712 203.376 5.25173L195.708 1.24837L196.009 6.19876C196.182 9.29814 196.139 11.1922 195.88 11.1922C195.665 11.1922 194.932 10.5895 194.2 9.85775C193.511 9.12595 191.486 7.18884 189.676 5.55306L186.402 2.62587L173.09 1.29142C165.767 0.60267 159.692 1.34856e-05 159.563 1.34856e-05C159.434 1.34856e-05 158.012 5.85439 156.375 13.0002ZM262.483 339.812C261.966 340.243 259.941 340.458 259.941 340.07C259.941 339.855 260.544 339.64 261.319 339.64C262.052 339.64 262.569 339.726 262.483 339.812Z" fill="#59A985"/>
</svg>
