<?xml version="1.0" standalone="no"?>
<!DOCTYPE svg PUBLIC "-//W3C//DTD SVG 20010904//EN"
 "http://www.w3.org/TR/2001/REC-SVG-20010904/DTD/svg10.dtd">
<svg version="1.0" xmlns="http://www.w3.org/2000/svg"
 width="1024.000000pt" height="1024.000000pt" viewBox="0 0 1024.000000 1024.000000"
 preserveAspectRatio="xMidYMid meet">

<g transform="translate(0.000000,1024.000000) scale(0.100000,-0.100000)"
fill="#000000" stroke="none">
<path d="M5239 9716 c-2 -2 -116 -7 -252 -10 -137 -4 -254 -9 -260 -12 -7 -2
-37 -6 -67 -8 -171 -13 -348 -43 -555 -93 -55 -14 -111 -27 -124 -29 -14 -3
-28 -7 -33 -10 -4 -3 -63 -21 -130 -40 -68 -18 -145 -42 -173 -53 -27 -10 -75
-26 -105 -36 -30 -10 -78 -29 -107 -42 -28 -12 -55 -23 -58 -23 -3 0 -44 -18
-91 -40 -47 -22 -87 -40 -90 -40 -3 0 -34 -14 -70 -30 -36 -17 -75 -35 -87
-41 -12 -5 -40 -20 -62 -33 -22 -12 -69 -39 -104 -60 -35 -20 -80 -49 -100
-65 -20 -16 -54 -38 -76 -49 -22 -11 -76 -46 -120 -76 -44 -30 -105 -72 -135
-93 -83 -56 -256 -198 -339 -277 -134 -129 -275 -271 -314 -316 -177 -211
-291 -355 -344 -435 -80 -120 -173 -265 -194 -302 -13 -23 -48 -82 -77 -131
-28 -49 -52 -94 -52 -99 0 -6 -8 -21 -19 -34 -10 -13 -22 -35 -26 -48 -4 -14
-43 -99 -87 -190 -70 -147 -113 -252 -123 -303 -2 -10 -11 -32 -19 -50 -8 -18
-27 -76 -42 -128 -14 -52 -29 -99 -32 -105 -4 -5 -8 -14 -9 -20 -1 -5 -9 -36
-17 -67 -7 -31 -16 -60 -19 -65 -5 -9 -33 -128 -42 -178 -2 -11 -15 -74 -28
-140 -14 -66 -30 -160 -36 -210 -6 -49 -16 -121 -22 -160 -27 -173 -26 -715 2
-915 6 -47 13 -103 16 -125 2 -22 8 -62 13 -90 5 -27 12 -66 15 -85 12 -93 35
-211 43 -227 5 -10 13 -43 18 -73 8 -58 10 -67 14 -75 1 -3 3 -8 4 -12 1 -5 4
-12 7 -18 4 -5 9 -28 13 -50 4 -22 14 -62 23 -90 9 -27 16 -52 15 -55 0 -3 4
-11 10 -17 6 -7 7 -13 3 -13 -4 0 -3 -6 3 -12 5 -7 15 -33 22 -58 25 -99 72
-238 95 -281 14 -26 25 -52 25 -58 0 -24 199 -433 243 -497 15 -23 27 -46 27
-50 0 -4 11 -24 24 -43 13 -20 36 -58 52 -85 90 -151 183 -281 299 -420 43
-51 159 -194 200 -245 42 -54 127 -143 214 -226 41 -38 93 -88 116 -110 69
-66 166 -149 199 -169 17 -10 57 -43 90 -72 32 -29 88 -72 125 -94 70 -44 150
-98 191 -131 74 -59 409 -246 565 -315 111 -49 316 -132 345 -139 14 -3 34
-10 45 -15 11 -5 83 -28 160 -50 77 -22 165 -48 195 -57 119 -36 417 -99 527
-112 436 -53 929 -52 1343 3 58 8 116 17 130 20 14 4 38 9 54 11 16 3 52 11
80 19 28 8 78 20 111 26 67 13 65 12 120 28 22 6 90 26 150 43 93 26 175 50
220 63 6 2 19 6 30 11 11 4 56 21 100 38 138 52 178 68 264 108 87 41 211 103
246 123 187 105 163 91 324 197 187 122 253 169 356 254 53 44 105 85 114 90
52 32 398 378 456 457 23 31 58 74 78 95 20 21 37 41 37 46 0 4 24 34 54 66
30 32 62 72 72 87 10 16 48 70 85 119 36 50 81 115 100 145 20 30 48 74 63 98
15 23 31 53 36 65 5 12 21 40 34 62 37 60 146 264 146 273 0 4 24 55 53 112
29 58 59 124 67 148 7 23 16 42 20 42 3 0 14 26 24 58 10 31 26 80 37 107 10
28 19 56 19 63 0 13 21 83 85 282 30 91 56 194 69 265 9 52 27 152 30 165 2 8
6 22 9 30 5 14 15 72 23 130 2 14 10 68 18 121 19 120 25 218 31 494 5 223 -4
391 -32 590 -8 61 -17 125 -19 144 -3 18 -13 70 -23 115 -11 44 -23 106 -27
136 -4 30 -8 57 -9 60 0 3 -4 11 -8 18 -5 6 -6 12 -3 12 7 0 -44 174 -141 480
-47 147 -139 362 -234 545 -29 55 -63 123 -77 150 -14 28 -48 86 -77 130 -28
44 -73 116 -100 160 -27 44 -59 91 -72 106 -13 14 -23 28 -23 32 0 12 -133
192 -179 242 -46 51 -61 68 -171 205 -60 73 -428 440 -442 440 -4 0 -35 25
-69 55 -53 47 -109 89 -245 185 -150 105 -371 244 -471 297 -179 93 -258 133
-266 133 -5 0 -66 25 -136 56 -122 55 -280 114 -302 114 -6 0 -25 6 -42 14
-26 12 -198 64 -267 81 -8 2 -39 11 -68 19 -29 8 -55 15 -57 15 -3 1 -10 3
-17 6 -56 19 -401 79 -518 90 -25 2 -124 9 -220 15 -96 5 -200 12 -231 15 -31
2 -58 3 -60 1z m451 -596 c30 -5 93 -14 140 -20 47 -5 96 -12 110 -15 14 -4
60 -13 103 -20 43 -8 101 -21 130 -29 29 -8 72 -18 97 -21 25 -4 59 -13 75
-20 17 -8 57 -21 90 -30 61 -16 212 -72 230 -85 6 -4 28 -13 50 -20 53 -17
326 -140 345 -155 8 -7 56 -34 105 -61 110 -58 361 -224 409 -269 6 -6 36 -28
66 -49 30 -22 64 -47 75 -57 11 -10 63 -55 115 -101 196 -171 406 -398 546
-588 22 -30 59 -80 81 -110 23 -30 54 -77 71 -105 16 -27 48 -80 70 -117 48
-78 147 -269 181 -348 13 -30 34 -77 47 -105 37 -80 128 -353 149 -450 3 -11
9 -31 14 -45 8 -21 35 -132 47 -195 2 -11 8 -38 13 -60 6 -22 18 -78 27 -125
9 -47 17 -92 19 -100 2 -9 8 -60 14 -115 6 -55 16 -139 22 -187 23 -191 10
-653 -25 -833 -2 -11 -7 -42 -10 -68 -4 -27 -10 -59 -13 -70 -2 -12 -13 -65
-23 -117 -19 -96 -84 -352 -103 -400 -3 -8 -17 -53 -32 -100 -55 -173 -69
-206 -214 -500 -111 -223 -116 -232 -202 -365 -33 -50 -59 -96 -59 -101 0 -6
-13 -23 -30 -39 -16 -16 -30 -34 -30 -41 0 -7 -12 -25 -28 -41 -15 -15 -32
-39 -38 -53 -7 -14 -43 -59 -80 -102 -38 -42 -85 -95 -104 -119 -30 -36 -121
-136 -162 -177 -56 -56 -213 -199 -226 -206 -10 -5 -33 -26 -53 -48 -20 -21
-40 -38 -44 -38 -5 0 -20 -11 -34 -24 -77 -73 -348 -253 -506 -336 -44 -24
-84 -46 -90 -50 -11 -8 -193 -90 -210 -94 -5 -2 -37 -16 -70 -31 -33 -15 -73
-31 -90 -35 -16 -5 -60 -19 -96 -33 -36 -14 -81 -28 -100 -32 -19 -4 -47 -13
-64 -20 -37 -16 -212 -69 -280 -84 -159 -36 -254 -50 -460 -71 -66 -6 -131
-14 -145 -16 -71 -13 -423 -16 -525 -4 -60 7 -129 14 -152 15 -22 2 -46 6 -52
9 -6 4 -14 5 -18 3 -7 -4 -155 8 -213 18 -231 38 -273 47 -390 82 -294 90
-657 227 -735 277 -11 7 -65 37 -120 66 -55 29 -107 58 -115 65 -8 6 -51 34
-95 61 -75 45 -318 223 -340 249 -5 6 -41 38 -80 70 -197 165 -459 445 -582
623 -47 68 -90 125 -114 153 -11 13 -27 37 -35 52 -8 15 -36 60 -62 100 -26
40 -58 92 -71 117 -14 25 -44 81 -68 125 -58 108 -106 208 -131 276 -11 30
-32 76 -46 102 -14 25 -26 52 -26 59 0 7 -14 54 -31 103 -17 50 -36 115 -43
145 -8 30 -18 67 -24 83 -7 15 -10 27 -7 27 2 0 -2 18 -10 40 -8 22 -12 40 -8
40 3 0 0 7 -7 15 -6 8 -9 19 -6 24 4 5 2 12 -3 15 -5 3 -14 39 -20 79 -6 39
-16 86 -21 103 -9 26 -21 105 -35 224 -1 14 -8 72 -15 129 -12 106 -9 673 5
756 3 22 15 101 26 175 18 126 28 172 77 375 42 175 139 480 162 510 4 6 13
28 20 50 12 37 32 82 134 297 57 121 253 439 315 511 15 17 47 61 71 97 24 36
46 67 50 70 4 3 44 50 90 105 46 55 93 107 104 114 12 8 28 24 36 35 31 45
202 206 340 320 93 78 183 144 315 230 50 32 113 74 142 93 73 49 409 217 527
265 117 47 286 108 411 148 170 53 500 129 566 130 25 0 60 5 76 10 16 6 90
15 164 20 155 10 668 3 749 -10z"/>
<path d="M5704 8263 c-17 -21 -37 -51 -46 -68 -47 -94 -96 -173 -124 -202 -18
-18 -36 -44 -40 -56 -3 -12 -18 -32 -33 -44 -21 -18 -24 -25 -15 -40 10 -15 4
-26 -37 -71 -56 -61 -149 -197 -149 -218 0 -8 -19 -34 -42 -57 -24 -24 -58
-62 -76 -85 -35 -44 -123 -102 -155 -102 -50 0 -409 -116 -567 -183 -165 -70
-343 -159 -377 -189 -10 -9 -42 -30 -72 -47 -128 -75 -394 -340 -500 -497 -39
-58 -71 -107 -71 -110 0 -4 -13 -25 -28 -48 -16 -23 -43 -71 -61 -107 -71
-141 -81 -158 -101 -164 -12 -4 -64 -4 -116 0 -92 7 -96 7 -157 -23 -129 -65
-225 -184 -278 -347 -20 -62 -20 -64 -26 -167 -8 -143 24 -263 120 -457 35
-70 119 -155 183 -186 22 -11 69 -21 105 -23 56 -3 69 -8 78 -26 38 -76 74
-132 131 -206 70 -90 96 -136 183 -320 118 -248 195 -399 296 -580 64 -114
242 -358 341 -465 57 -63 74 -77 205 -172 131 -95 340 -169 695 -243 30 -7
131 -14 224 -17 176 -6 242 1 391 39 44 11 100 25 125 30 25 5 52 12 60 15 8
4 17 7 20 7 6 1 33 12 165 62 131 51 200 87 305 159 52 36 250 233 250 249 0
6 16 24 35 39 19 15 52 53 73 85 21 31 57 84 79 117 72 106 153 235 153 242 0
3 7 14 15 23 8 8 73 131 144 273 167 331 191 372 250 440 27 31 53 67 57 79 4
13 24 49 46 80 35 52 44 59 96 74 108 30 144 49 214 114 51 47 80 84 105 135
41 82 75 184 92 273 16 82 12 246 -6 297 -8 22 -16 47 -18 55 -6 28 -64 142
-88 174 -49 63 -115 123 -159 145 -48 23 -220 45 -248 32 -19 -10 -62 -7 -79
3 -7 5 -35 54 -62 110 -60 125 -190 340 -244 403 -90 105 -215 240 -245 263
-18 14 -52 43 -77 65 -25 22 -64 51 -87 64 -23 13 -54 35 -70 48 -31 26 -128
77 -216 113 -30 13 -62 29 -70 36 -8 6 -37 19 -65 27 -27 9 -80 27 -117 40
-38 14 -68 23 -68 21 0 -3 -10 1 -22 7 -18 10 -202 65 -248 74 -8 2 -35 9 -60
16 -25 7 -49 13 -55 13 -5 1 -19 6 -30 12 -11 7 -34 15 -52 18 -17 4 -36 13
-41 19 -42 50 -5 270 73 442 16 34 44 115 79 222 13 40 35 91 48 115 14 24 29
54 33 68 4 14 20 42 37 63 16 21 28 42 26 48 -2 6 -17 -7 -34 -28z m-1219
-2194 c39 -6 106 -21 150 -34 44 -13 91 -27 105 -30 24 -7 211 -102 255 -130
37 -24 125 -35 271 -35 146 0 226 11 255 36 8 8 19 14 23 14 3 0 35 18 70 40
35 22 69 40 76 40 7 0 29 9 49 19 49 26 109 46 216 72 122 30 295 31 415 1
127 -31 243 -75 279 -105 18 -15 37 -27 43 -27 12 0 178 -168 178 -181 0 -4
14 -28 30 -53 80 -117 78 -216 -6 -381 -31 -60 -71 -131 -90 -156 -19 -26 -34
-50 -34 -53 0 -4 -22 -40 -50 -80 -27 -40 -50 -76 -50 -80 0 -3 -7 -14 -15
-23 -24 -30 -84 -115 -113 -162 -15 -24 -45 -71 -66 -105 -22 -33 -53 -86 -69
-116 -16 -30 -41 -76 -55 -101 -15 -25 -35 -60 -45 -78 -24 -43 -73 -195 -81
-255 -11 -73 -20 -87 -27 -46 -5 26 -7 16 -8 -40 -2 -41 -5 -84 -7 -95 -20
-81 -26 -240 -15 -370 27 -303 26 -315 -7 -378 -30 -56 -101 -137 -121 -137
-6 0 -32 -16 -58 -37 -27 -20 -82 -52 -123 -70 -81 -38 -244 -93 -272 -93 -9
0 -27 -4 -40 -10 -59 -24 -520 -28 -577 -4 -9 4 -25 8 -36 9 -34 5 -149 35
-170 45 -11 5 -51 21 -90 35 -77 28 -187 91 -251 142 -23 18 -48 33 -56 33 -8
0 -36 33 -62 73 l-47 72 5 110 c16 320 17 485 6 575 -6 52 -15 122 -19 155
-20 160 -129 392 -317 675 -45 69 -110 166 -143 215 -32 50 -73 110 -89 135
-17 25 -61 106 -99 180 -67 133 -68 136 -68 215 0 67 5 90 28 140 91 191 236
317 447 388 119 41 150 48 235 54 44 3 82 7 84 9 4 4 45 0 156 -17z m-268
-2756 c-2 -27 -3 -5 -3 47 0 52 1 74 3 48 2 -27 2 -69 0 -95z"/>
<path d="M4379 5531 c-98 -14 -183 -98 -211 -212 -35 -138 14 -252 140 -328
55 -33 153 -51 189 -36 10 4 24 9 31 11 57 12 163 109 180 166 37 122 16 235
-57 305 -87 83 -162 109 -272 94z"/>
<path d="M5890 5508 c-60 -20 -121 -72 -150 -128 -10 -19 -18 -38 -18 -43 0
-4 -5 -31 -11 -60 -12 -58 -12 -96 1 -113 5 -7 8 -16 7 -20 -9 -41 88 -149
166 -185 61 -28 158 -25 222 6 68 34 138 110 153 166 45 167 -38 332 -189 379
-74 23 -104 23 -181 -2z"/>
<path d="M4710 4718 c-10 -13 -37 -49 -60 -81 l-41 -57 26 -10 c15 -6 31 -10
36 -10 5 0 9 -4 9 -10 0 -5 7 -10 16 -10 8 0 40 -12 70 -27 62 -30 86 -25 92
18 2 13 7 28 12 33 12 12 51 1 75 -21 24 -22 93 -63 106 -63 14 0 11 17 -6 33
-8 8 -12 17 -9 20 8 7 -24 56 -60 92 -17 17 -42 45 -56 63 -30 38 -66 52 -137
52 -43 0 -57 -4 -73 -22z m130 -198 c0 -5 -5 -10 -11 -10 -5 0 -7 5 -4 10 3 6
8 10 11 10 2 0 4 -4 4 -10z"/>
<path d="M5685 4670 c-111 -43 -193 -169 -155 -239 17 -33 55 -26 103 19 26
23 61 44 89 51 41 11 48 11 76 -10 39 -28 96 -38 117 -21 21 18 29 73 15 114
-10 31 -90 111 -90 90 0 -4 -5 -3 -12 4 -18 18 -86 14 -143 -8z"/>
<path d="M4890 3840 c-58 -11 -143 -24 -188 -31 -46 -6 -96 -17 -110 -25 -15
-8 -33 -14 -39 -14 -7 0 -13 -4 -13 -9 0 -15 76 -19 235 -13 283 10 341 8 665
-31 14 -2 30 -6 35 -9 6 -3 51 -9 100 -13 50 -3 139 -13 199 -21 60 -8 115
-13 122 -10 18 7 18 40 1 54 -23 19 -206 81 -285 96 -42 9 -93 20 -112 27 -20
6 -134 12 -270 15 -200 3 -251 0 -340 -16z"/>
<path d="M10080 80 l0 -80 80 0 80 0 0 80 0 80 -80 0 -80 0 0 -80z"/>
</g>
</svg>
